<svg width="26" height="27" viewBox="0 0 26 27" fill="none" xmlns="http://www.w3.org/2000/svg">
<path fill-rule="evenodd" clip-rule="evenodd" d="M10.3738 17.362C14.3637 17.362 17.7738 17.9665 17.7738 20.3817C17.7738 22.7968 14.3864 23.4187 10.3738 23.4187C6.38283 23.4187 2.97375 22.8195 2.97375 20.4033C2.97375 17.9871 6.36012 17.362 10.3738 17.362Z" stroke="#9FB4CD" stroke-width="1.94681" stroke-linecap="round" stroke-linejoin="round"/>
<path fill-rule="evenodd" clip-rule="evenodd" d="M10.3739 13.915C7.75431 13.915 5.63013 11.7919 5.63013 9.17238C5.63013 6.55284 7.75431 4.42974 10.3739 4.42974C12.9923 4.42974 15.1165 6.55284 15.1165 9.17238C15.1262 11.7822 13.0172 13.9053 10.4074 13.915H10.3739Z" stroke="#9FB4CD" stroke-width="1.94681" stroke-linecap="round" stroke-linejoin="round"/>
<path d="M17.8275 12.684C19.559 12.4406 20.8926 10.9546 20.8958 9.15594C20.8958 7.38327 19.6034 5.91235 17.9086 5.63438" stroke="#9FB4CD" stroke-width="1.94681" stroke-linecap="round" stroke-linejoin="round"/>
<path d="M20.112 16.8486C21.7895 17.0985 22.9608 17.6869 22.9608 18.8982C22.9608 19.7321 22.4092 20.2729 21.518 20.6114" stroke="#9FB4CD" stroke-width="1.94681" stroke-linecap="round" stroke-linejoin="round"/>
</svg>
