<svg width="18" height="18" viewBox="0 0 18 18" fill="none" xmlns="http://www.w3.org/2000/svg">
<g id="Category">
<path id="Category_2" fill-rule="evenodd" clip-rule="evenodd" d="M2.78323 0.666672H5.5999C6.7749 0.666672 7.71657 1.62501 7.71657 2.80084V5.64167C7.71657 6.825 6.7749 7.775 5.5999 7.775H2.78323C1.61656 7.775 0.666565 6.825 0.666565 5.64167V2.80084C0.666565 1.62501 1.61656 0.666672 2.78323 0.666672ZM2.78323 10.2248H5.5999C6.7749 10.2248 7.71657 11.1756 7.71657 12.3589V15.1998C7.71657 16.3748 6.7749 17.3331 5.5999 17.3331H2.78323C1.61656 17.3331 0.666565 16.3748 0.666565 15.1998V12.3589C0.666565 11.1756 1.61656 10.2248 2.78323 10.2248ZM15.2166 0.666672H12.4C11.225 0.666672 10.2833 1.62501 10.2833 2.80084V5.64167C10.2833 6.825 11.225 7.775 12.4 7.775H15.2166C16.3833 7.775 17.3333 6.825 17.3333 5.64167V2.80084C17.3333 1.62501 16.3833 0.666672 15.2166 0.666672ZM12.4 10.2248H15.2166C16.3833 10.2248 17.3333 11.1756 17.3333 12.3589V15.1998C17.3333 16.3748 16.3833 17.3331 15.2166 17.3331H12.4C11.225 17.3331 10.2833 16.3748 10.2833 15.1998V12.3589C10.2833 11.1756 11.225 10.2248 12.4 10.2248Z" fill="white"/>
</g>
</svg>
