<svg width="26" height="27" viewBox="0 0 26 27" fill="none" xmlns="http://www.w3.org/2000/svg">
<path fill-rule="evenodd" clip-rule="evenodd" d="M20.6269 21.4975C17.3214 24.8033 12.4269 25.5175 8.42151 23.6652C7.83021 23.4271 7.34543 23.2347 6.88456 23.2347C5.60087 23.2423 4.00306 24.487 3.17263 23.6575C2.3422 22.827 3.58785 21.2279 3.58785 19.9365C3.58785 19.4756 3.40306 18.9995 3.16502 18.407C1.31178 14.4022 2.02699 9.50609 5.3324 6.2014C9.55193 1.98031 16.4073 1.98031 20.6269 6.20031C24.854 10.4279 24.8464 17.2775 20.6269 21.4975Z" stroke="#9FB4CD" stroke-width="1.94681" stroke-linecap="round" stroke-linejoin="round"/>
<path d="M17.2395 14.2977H17.2492" stroke="#9FB4CD" stroke-width="2.59574" stroke-linecap="round" stroke-linejoin="round"/>
<path d="M12.9034 14.2977H12.9131" stroke="#9FB4CD" stroke-width="2.59574" stroke-linecap="round" stroke-linejoin="round"/>
<path d="M8.56747 14.2977H8.5772" stroke="#9FB4CD" stroke-width="2.59574" stroke-linecap="round" stroke-linejoin="round"/>
</svg>
