<svg width="23" height="23" viewBox="0 0 23 23" fill="none" xmlns="http://www.w3.org/2000/svg">
<path d="M11.1979 0C11.6294 0 11.9792 0.349781 11.9792 0.78125V1.82292C11.9792 2.25439 11.6294 2.60417 11.1979 2.60417C10.7665 2.60417 10.4167 2.25439 10.4167 1.82292V0.78125C10.4167 0.349781 10.7665 0 11.1979 0Z" fill="#9FB4CD"/>
<path d="M11.1979 5.20834C7.88994 5.20834 5.20831 7.88997 5.20831 11.1979C5.20831 14.5058 7.88994 17.1875 11.1979 17.1875C14.5058 17.1875 17.1875 14.5058 17.1875 11.1979C17.1875 7.88997 14.5058 5.20834 11.1979 5.20834Z" stroke="#9FB4CD"/>
<path d="M4.38465 3.27982C4.07954 2.97472 3.58489 2.97472 3.27979 3.27982C2.97469 3.58492 2.97469 4.07958 3.27979 4.38468L4.01635 5.12124C4.32146 5.42635 4.81612 5.42635 5.12121 5.12124C5.42631 4.81615 5.42631 4.32148 5.12121 4.01639L4.38465 3.27982Z" fill="#9FB4CD"/>
<path d="M22.3959 11.1979C22.3959 11.6294 22.0461 11.9792 21.6146 11.9792H20.5729C20.1415 11.9792 19.7917 11.6294 19.7917 11.1979C19.7917 10.7664 20.1415 10.4167 20.5729 10.4167H21.6146C22.0461 10.4167 22.3959 10.7664 22.3959 11.1979Z" fill="#9FB4CD"/>
<path d="M19.1161 4.38468C19.4212 4.07957 19.4212 3.58492 19.1161 3.27982C18.811 2.97472 18.3163 2.97472 18.0112 3.27982L17.2746 4.01639C16.9695 4.32149 16.9695 4.81615 17.2746 5.12124C17.5797 5.42634 18.0744 5.42634 18.3795 5.12124L19.1161 4.38468Z" fill="#9FB4CD"/>
<path d="M11.1979 19.7917C11.6294 19.7917 11.9792 20.1414 11.9792 20.5729V21.6146C11.9792 22.046 11.6294 22.3958 11.1979 22.3958C10.7665 22.3958 10.4167 22.046 10.4167 21.6146V20.5729C10.4167 20.1414 10.7665 19.7917 11.1979 19.7917Z" fill="#9FB4CD"/>
<path d="M18.3795 17.2746C18.0744 16.9695 17.5798 16.9695 17.2747 17.2746C16.9696 17.5797 16.9696 18.0744 17.2747 18.3795L18.0112 19.116C18.3163 19.4211 18.8109 19.4211 19.116 19.116C19.4211 18.8109 19.4211 18.3162 19.116 18.0111L18.3795 17.2746Z" fill="#9FB4CD"/>
<path d="M2.60417 11.1979C2.60417 11.6294 2.25439 11.9792 1.82292 11.9792H0.78125C0.349781 11.9792 0 11.6294 0 11.1979C0 10.7664 0.349781 10.4167 0.78125 10.4167H1.82292C2.25439 10.4167 2.60417 10.7664 2.60417 11.1979Z" fill="#9FB4CD"/>
<path d="M5.12115 18.3795C5.42624 18.0744 5.42624 17.5797 5.12115 17.2746C4.81605 16.9695 4.32139 16.9695 4.0163 17.2746L3.27972 18.0111C2.97463 18.3162 2.97463 18.8109 3.27972 19.116C3.58482 19.4211 4.07948 19.4211 4.38458 19.116L5.12115 18.3795Z" fill="#9FB4CD"/>
</svg>
