<svg width="26" height="27" viewBox="0 0 26 27" fill="none" xmlns="http://www.w3.org/2000/svg">
<path d="M12.9734 18.8667V16.1228" stroke="#9FB4CD" stroke-width="1.94681" stroke-linecap="round" stroke-linejoin="round"/>
<path fill-rule="evenodd" clip-rule="evenodd" d="M19.6735 6.5947C21.5013 6.5947 22.9722 8.07644 22.9722 9.90428V13.6248C20.3116 15.1823 16.7965 16.1232 12.9678 16.1232C9.13908 16.1232 5.63482 15.1823 2.97418 13.6248V9.89346C2.97418 8.06563 4.45592 6.5947 6.28376 6.5947H19.6735Z" stroke="#9FB4CD" stroke-width="1.94681" stroke-linecap="round" stroke-linejoin="round"/>
<path d="M16.7588 6.58995V6.1941C16.7588 4.87459 15.6881 3.80385 14.3686 3.80385H11.5782C10.2587 3.80385 9.18793 4.87459 9.18793 6.1941V6.58995" stroke="#9FB4CD" stroke-width="1.94681" stroke-linecap="round" stroke-linejoin="round"/>
<path d="M3.00061 17.5756L3.20503 20.2892C3.34346 22.1181 4.86738 23.5317 6.70063 23.5317H19.2456C21.0789 23.5317 22.6028 22.1181 22.7412 20.2892L22.9457 17.5756" stroke="#9FB4CD" stroke-width="1.94681" stroke-linecap="round" stroke-linejoin="round"/>
</svg>
